Coordinates
version=1
nRows=27
nColumns=12
inDegrees=yes

Units are S.I. units (second, meters, Newtons, ...)
Angles are in degrees

endheader
time	SC_y	SC_z	SC_x	AC_y	AC_z	AC_x	GH_y	GH_z	GH_yy	EL_x	PS_y
       0.0              -48.29          6.888          82.36          47.59         -15.46          7.279          103.2          84.32         -34.11          84.75           64.1
 5.218e-06              -48.29          6.888          82.35          47.59         -15.46          7.277          103.2          84.31         -34.11          84.74           64.1
 1.044e-05              -48.29          6.889          82.34          47.59         -15.45          7.273          103.2          84.31         -34.11          84.74           64.1
 1.565e-05              -48.28           6.89          82.33          47.59         -15.45           7.27          103.2           84.3         -34.12          84.73          64.11
 2.087e-05              -48.28           6.89          82.31          47.59         -15.45          7.267          103.2          84.29         -34.12          84.72          64.11
 2.609e-05              -48.28          6.891           82.3          47.59         -15.45          7.263          103.2          84.28         -34.13          84.71          64.12
 3.131e-05              -48.28          6.892          82.28          47.58         -15.45          7.259          103.2          84.27         -34.13           84.7          64.12
 3.653e-05              -48.28          6.893          82.27          47.58         -15.45          7.255          103.2          84.26         -34.14           84.7          64.13
 4.175e-05              -48.28          6.894          82.25          47.58         -15.45           7.25          103.2          84.25         -34.14          84.69          64.13
 4.696e-05              -48.27          6.895          82.23          47.58         -15.44          7.245          103.2          84.24         -34.15          84.68          64.14
 5.218e-05              -48.27          6.896          82.21          47.58         -15.44           7.24          103.2          84.23         -34.16          84.66          64.15
  5.74e-05              -48.27          6.897          82.19          47.58         -15.44          7.235          103.2          84.21         -34.16          84.65          64.15
 6.262e-05              -48.27          6.898          82.16          47.58         -15.44          7.229          103.3           84.2         -34.17          84.64          64.16
 6.784e-05              -48.27            6.9          82.14          47.57         -15.44          7.222          103.3          84.18         -34.18          84.62          64.17
 7.306e-05              -48.26          6.901          82.11          47.57         -15.43          7.215          103.3          84.17         -34.19          84.61          64.18
 7.827e-05              -48.26          6.903          82.08          47.57         -15.43          7.207          103.3          84.15          -34.2          84.59          64.19
 8.349e-05              -48.26          6.904          82.05          47.57         -15.43          7.199          103.3          84.13         -34.21          84.58           64.2
 8.871e-05              -48.25          6.906          82.01          47.57         -15.42           7.19          103.3          84.11         -34.22          84.56          64.21
 9.393e-05              -48.25          6.908          81.97          47.56         -15.42           7.18          103.3          84.08         -34.23          84.53          64.23
 9.915e-05              -48.24          6.911          81.93          47.56         -15.42          7.169          103.3          84.06         -34.25          84.51          64.24
 0.0001044              -48.24          6.913          81.89          47.56         -15.41          7.157          103.3          84.03         -34.26          84.48          64.26
 0.0001096              -48.23          6.916          81.84          47.55         -15.41          7.144          103.3           84.0         -34.28          84.46          64.27
 0.0001148              -48.23          6.919          81.78          47.55          -15.4          7.129          103.3          83.96          -34.3          84.43          64.29
   0.00012              -48.22          6.922          81.72          47.55          -15.4          7.113          103.3          83.92         -34.32          84.39          64.31
 0.0001252              -48.21          6.926          81.65          47.54         -15.39          7.095          103.3          83.88         -34.34          84.35          64.34
 0.0001305              -48.21           6.93          81.57          47.54         -15.38          7.076          103.3          83.83         -34.37          84.31          64.36
 0.0001357               -48.2          6.934          81.48          47.53         -15.37          7.053          103.3          83.78         -34.39          84.26          64.39
